{
	"samplers":[{
		"magFilter":9729,
		"minFilter":9729,
		"wrapS":10497,
		"wrapT":10497
	}],
	"meshes":[{
		"name":"pCube1",
		"primitives":[{
			"attributes":{
				"POSITION":1,
				"NORMAL":2,
				"TEXCOORD_0":3
			},
			"indices":0,
			"material":0
		}]
	}],
	"asset":{
		"version":"2.0",
		"generator":"Created using the official Cinema 4D glTF Exporter 1.000x284978"
	},
	"textures":[{
		"sampler":0,
		"source":0
	}],
	"scenes":[{
		"nodes":[0]
	}],
	"nodes":[{
		"name":"pCube1",
		"translation":[-0.3196895122528076,
		12.819997787475586,
		-0.5152930617332459],
		"rotation":[0.0,
		0.0,
		0.0,
		-1.0],
		"scale":[1.0,
		1.0,
		1.0],
		"mesh":0
	}],
	"accessors":[{
		"type":"SCALAR",
		"bufferView":0,
		"componentType":5123,
		"max":[213],
		"count":492,
		"byteOffset":0,
		"min":[0]
	},
	{
		"type":"VEC3",
		"bufferView":1,
		"componentType":5126,
		"max":[8.0,
		11.0,
		1.75],
		"count":214,
		"byteOffset":0,
		"min":[-8.237285614013672,
		-11.23358154296875,
		-1.75]
	},
	{
		"type":"VEC3",
		"bufferView":1,
		"componentType":5126,
		"max":[0.9787961840629578,
		0.999302089214325,
		1.0],
		"count":214,
		"byteOffset":12,
		"min":[-0.9989604949951172,
		-0.9997383952140808,
		-1.0]
	},
	{
		"type":"VEC2",
		"bufferView":1,
		"componentType":5126,
		"max":[0.9960635900497437,
		0.9209516048431397],
		"count":214,
		"byteOffset":24,
		"min":[-0.007554888725280762,
		-0.0004194974899291992]
	}],
	"bufferViews":[{
		"buffer":0,
		"byteOffset":0,
		"byteLength":984,
		"target":34963
	},
	{
		"buffer":0,
		"byteOffset":984,
		"byteLength":6848,
		"byteStride":32,
		"target":34962
	}],
	"buffers":[{
		"uri":"data:application/octet-stream;base64,",
		"byteLength":7832
	}],
	"images":[{
		"uri":"data:image/jpeg;base64,"
	}],
	"materials":[{
		"pbrMetallicRoughness":{
			"roughnessFactor":0.26,
			"baseColorTexture":{
				"index":0
			},
			"metallicFactor":0.0,
			"baseColorFactor":[0.8,
			0.8,
			0.8,
			1.0]
		},
		"emissiveFactor":[0.0,
		0.0,
		0.0],
		"alphaMode":"OPAQUE",
		"doubleSided":false,
		"name":"Mat"
	}]
}